<?xml version="1.0" encoding="UTF-8"?>
<svg xmlns="http://www.w3.org/2000/svg" xmlns:xlink="http://www.w3.org/1999/xlink" width="1080px" height="953px" viewBox="0 0 1079 953" version="1.1">
<g id="surface1">
<path style=" stroke:none;fill-rule:nonzero;fill:rgb(0%,0%,0%);fill-opacity:1;" d="M 451.183594 369.863281 L 451.183594 374.667969 L 510.382812 374.667969 L 510.382812 365.058594 L 451.183594 365.058594 Z M 451.183594 369.863281 "/>
<path style=" stroke:none;fill-rule:nonzero;fill:rgb(0%,0%,0%);fill-opacity:1;" d="M 519.980469 407.972656 C 519.980469 430.707031 520.300781 449.761719 520.621094 450.082031 C 520.941406 450.402344 524.78125 450.5625 529.101562 450.242188 L 536.78125 449.601562 L 536.460938 411.011719 C 536.300781 389.71875 536.140625 370.984375 536.140625 369.382812 C 535.980469 367.140625 534.539062 366.660156 527.980469 366.660156 L 519.980469 366.660156 Z M 519.980469 407.972656 "/>
<path style=" stroke:none;fill-rule:nonzero;fill:rgb(0%,0%,0%);fill-opacity:1;" d="M 181.753906 372.425781 C 179.511719 374.667969 179.191406 388.4375 179.191406 501.15625 C 179.191406 613.878906 179.511719 627.648438 181.753906 629.890625 C 183.992188 632.132812 193.753906 632.453125 266.390625 632.453125 C 339.027344 632.453125 348.785156 632.132812 351.027344 629.890625 C 353.265625 627.648438 353.585938 613.878906 353.585938 501.15625 C 353.585938 388.4375 353.265625 374.667969 351.027344 372.425781 C 348.785156 370.183594 339.027344 369.863281 266.390625 369.863281 C 193.753906 369.863281 183.992188 370.183594 181.753906 372.425781 Z M 339.1875 501.15625 L 339.1875 618.039062 L 193.59375 618.039062 L 193.59375 384.273438 L 339.1875 384.273438 Z M 339.1875 501.15625 "/>
<path style=" stroke:none;fill-rule:nonzero;fill:rgb(0%,0%,0%);fill-opacity:1;" d="M 205.59375 397.5625 C 205.113281 398.683594 204.953125 413.253906 205.113281 429.90625 L 205.59375 460.328125 L 261.589844 460.328125 L 261.589844 396.28125 L 233.910156 395.800781 C 212.3125 395.480469 206.074219 395.800781 205.59375 397.5625 Z M 255.671875 428.625 L 255.191406 453.925781 L 211.992188 453.925781 L 211.511719 428.625 L 211.03125 403.488281 L 256.152344 403.488281 Z M 255.671875 428.625 "/>
<path style=" stroke:none;fill-rule:nonzero;fill:rgb(0%,0%,0%);fill-opacity:1;" d="M 271.191406 397.5625 C 270.710938 398.683594 270.550781 413.253906 270.710938 429.90625 L 271.191406 460.328125 L 327.1875 460.328125 L 327.1875 396.28125 L 299.507812 395.800781 C 277.910156 395.480469 271.671875 395.800781 271.191406 397.5625 Z M 321.269531 428.625 L 320.789062 453.925781 L 277.589844 453.925781 L 277.109375 428.625 L 276.628906 403.488281 L 321.75 403.488281 Z M 321.269531 428.625 "/>
<path style=" stroke:none;fill-rule:nonzero;fill:rgb(0%,0%,0%);fill-opacity:1;" d="M 208.3125 468.65625 L 204.792969 469.292969 L 205.113281 537.664062 L 205.59375 606.03125 L 261.589844 606.03125 L 262.070312 537.824219 L 262.390625 469.453125 L 258.871094 468.496094 C 254.871094 467.535156 214.070312 467.535156 208.3125 468.65625 Z M 255.671875 537.503906 L 255.191406 599.628906 L 211.992188 599.628906 L 211.511719 539.585938 C 211.351562 506.601562 211.511719 478.582031 211.992188 477.621094 C 212.472656 476.019531 218.390625 475.539062 234.390625 475.539062 L 255.992188 475.539062 Z M 255.671875 537.503906 "/>
<path style=" stroke:none;fill-rule:nonzero;fill:rgb(0%,0%,0%);fill-opacity:1;" d="M 272.308594 468.816406 C 270.710938 469.933594 270.390625 484.824219 270.710938 538.144531 L 271.191406 606.03125 L 327.1875 606.03125 L 327.667969 538.144531 C 327.828125 489.148438 327.507812 469.773438 326.226562 468.976562 C 323.667969 467.535156 274.871094 467.375 272.308594 468.816406 Z M 321.269531 537.503906 L 320.789062 599.628906 L 277.589844 599.628906 L 277.109375 539.585938 C 276.949219 506.601562 277.109375 478.582031 277.589844 477.621094 C 278.070312 476.019531 283.988281 475.539062 299.988281 475.539062 L 321.589844 475.539062 Z M 321.269531 537.503906 "/>
<path style=" stroke:none;fill-rule:nonzero;fill:rgb(0%,0%,0%);fill-opacity:1;" d="M 648.296875 382.671875 C 634.535156 386.035156 625.738281 397.5625 624.296875 413.894531 C 623.65625 422.382812 624.296875 425.421875 627.65625 432.789062 C 633.417969 445.597656 641.578125 450.722656 656.136719 450.722656 C 664.773438 450.722656 667.816406 450.082031 671.816406 447.039062 C 676.453125 443.675781 676.773438 443.515625 676.773438 446.558594 C 676.773438 448.960938 678.054688 449.761719 683.976562 450.242188 C 687.816406 450.5625 691.8125 450.5625 692.773438 450.242188 C 693.734375 449.921875 694.375 437.433594 694.375 416.136719 L 694.375 382.671875 L 685.574219 382.671875 C 677.253906 382.671875 676.773438 382.832031 676.773438 386.835938 C 676.773438 390.519531 676.613281 390.679688 674.214844 388.4375 C 668.773438 382.832031 657.574219 380.429688 648.296875 382.671875 Z M 672.773438 401.085938 C 676.296875 404.449219 676.773438 406.371094 676.773438 416.296875 C 676.773438 428.625 674.375 432.789062 666.375 434.871094 C 659.976562 436.472656 648.136719 434.550781 644.777344 431.507812 C 636.617188 424.144531 637.257812 407.171875 645.894531 400.445312 C 652.296875 395.320312 667.496094 395.640625 672.773438 401.085938 Z M 672.773438 401.085938 "/>
<path style=" stroke:none;fill-rule:nonzero;fill:rgb(0%,0%,0%);fill-opacity:1;" d="M 727.171875 384.113281 C 719.652344 388.117188 719.972656 388.117188 719.972656 385.074219 C 719.972656 383.3125 718.054688 382.671875 711.972656 382.671875 L 703.972656 382.671875 L 704.292969 416.617188 L 704.773438 450.722656 L 708.773438 450.5625 C 721.253906 449.921875 719.972656 452.003906 719.972656 431.027344 C 719.972656 400.765625 722.535156 396.121094 738.691406 397.402344 C 752.132812 398.523438 752.613281 399.644531 753.253906 426.542969 L 753.730469 449.601562 L 760.933594 450.242188 C 764.773438 450.5625 768.453125 450.5625 769.089844 450.402344 C 771.011719 449.761719 768.929688 399.964844 766.851562 395.160156 C 761.890625 383.792969 739.652344 377.550781 727.171875 384.113281 Z M 727.171875 384.113281 "/>
<path style=" stroke:none;fill-rule:nonzero;fill:rgb(0%,0%,0%);fill-opacity:1;" d="M 803.332031 383.3125 C 796.449219 385.554688 788.289062 391.960938 785.410156 397.402344 C 779.8125 407.8125 780.929688 428.304688 787.652344 438.234375 C 798.371094 454.085938 828.128906 456.164062 841.730469 441.914062 C 848.929688 434.230469 851.96875 424.144531 850.527344 411.332031 C 849.25 397.5625 843.808594 389.078125 833.890625 385.074219 C 825.730469 381.550781 811.328125 380.75 803.332031 383.3125 Z M 829.25 400.445312 C 834.847656 404.769531 837.410156 414.375 835.167969 422.382812 C 832.769531 431.667969 828.609375 434.550781 817.089844 435.191406 C 808.449219 435.671875 806.53125 435.191406 802.53125 431.828125 C 793.730469 424.621094 795.492188 402.6875 805.25 398.683594 C 812.128906 395.960938 824.769531 396.921875 829.25 400.445312 Z M 829.25 400.445312 "/>
<path style=" stroke:none;fill-rule:nonzero;fill:rgb(0%,0%,0%);fill-opacity:1;" d="M 550.378906 391 C 551.980469 395.640625 555.660156 407.011719 558.539062 416.296875 C 561.257812 425.582031 564.777344 436.953125 566.21875 441.753906 L 568.9375 450.242188 L 583.179688 450.402344 C 593.898438 450.5625 597.578125 449.921875 598.699219 448.160156 C 599.65625 446.398438 610.21875 413.253906 618.535156 385.394531 C 619.335938 382.992188 618.21875 382.671875 610.699219 382.671875 L 602.058594 382.671875 L 594.378906 408.453125 C 587.5 430.867188 584.296875 437.914062 581.578125 435.191406 C 581.097656 434.871094 577.257812 423.023438 572.9375 408.933594 L 565.097656 383.472656 L 556.140625 382.992188 L 547.179688 382.511719 Z M 550.378906 391 "/>
<path style=" stroke:none;fill-rule:nonzero;fill:rgb(0%,0%,0%);fill-opacity:1;" d="M 451.183594 427.503906 L 451.183594 451.523438 L 510.382812 451.523438 L 510.382812 441.914062 L 460.78125 441.914062 L 460.78125 413.09375 L 510.382812 413.09375 L 510.382812 403.488281 L 451.183594 403.488281 Z M 451.183594 427.503906 "/>
<path style=" stroke:none;fill-rule:nonzero;fill:rgb(0%,0%,0%);fill-opacity:1;" d="M 461.101562 477.941406 C 454.382812 480.824219 450.542969 489.46875 451.664062 499.234375 C 452.144531 503.078125 453.582031 507.402344 455.023438 509.003906 C 456.464844 510.445312 467.824219 516.527344 480.300781 522.773438 L 503.179688 533.980469 L 503.660156 540.386719 C 504.300781 550.953125 503.179688 551.59375 483.503906 551.59375 C 464.621094 551.59375 460.78125 550.152344 460.78125 543.429688 C 460.78125 540.226562 459.984375 539.585938 455.824219 539.585938 C 450.863281 539.585938 450.863281 539.746094 451.664062 545.507812 C 452.304688 549.511719 454.382812 553.195312 457.582031 555.917969 C 462.382812 560.238281 462.863281 560.398438 482.542969 560.398438 C 493.582031 560.398438 503.980469 559.597656 505.742188 558.796875 C 513.261719 554.636719 516.460938 536.0625 510.699219 528.855469 C 509.261719 526.9375 497.421875 520.210938 484.460938 514.125 L 460.78125 502.917969 L 460.78125 496.515625 C 460.78125 486.425781 463.183594 485.144531 482.222656 485.144531 C 500.78125 485.144531 503.5 486.425781 504.300781 494.753906 C 504.78125 499.554688 505.421875 500.355469 509.261719 500.835938 C 513.421875 501.316406 513.582031 500.996094 513.582031 494.433594 C 513.582031 486.105469 510.222656 480.824219 503.019531 477.78125 C 495.820312 474.738281 468.144531 474.898438 461.101562 477.941406 Z M 461.101562 477.941406 "/>
<path style=" stroke:none;fill-rule:nonzero;fill:rgb(0%,0%,0%);fill-opacity:1;" d="M 606.378906 477.941406 C 606.378906 479.222656 606.378906 496.515625 606.378906 516.367188 C 606.378906 536.222656 606.378906 554.15625 606.378906 556.398438 C 606.378906 560.078125 606.859375 560.398438 614.378906 560.398438 C 621.257812 560.398438 622.375 559.917969 622.375 557.199219 C 622.375 554.15625 622.535156 554.15625 628.457031 557.679688 C 632.9375 560.398438 636.777344 561.199219 644.136719 561.039062 C 656.777344 560.878906 665.414062 555.277344 671.335938 543.109375 C 675.015625 535.742188 675.496094 533.339844 674.855469 523.734375 C 673.894531 510.285156 668.613281 501.796875 657.414062 495.554688 C 647.976562 490.429688 639.496094 490.429688 629.898438 495.394531 L 622.375 499.074219 L 622.375 475.539062 L 614.378906 475.539062 C 608.296875 475.539062 606.378906 476.179688 606.378906 477.941406 Z M 654.855469 511.40625 C 660.296875 516.367188 661.894531 527.257812 658.535156 535.421875 C 654.695312 544.546875 642.695312 548.390625 630.535156 544.226562 C 623.816406 541.828125 622.375 538.625 622.375 526.296875 C 622.375 518.289062 623.175781 515.085938 625.738281 511.726562 C 628.617188 508.042969 630.058594 507.5625 639.816406 507.5625 C 649.097656 507.5625 651.335938 508.203125 654.855469 511.40625 Z M 654.855469 511.40625 "/>
<path style=" stroke:none;fill-rule:nonzero;fill:rgb(0%,0%,0%);fill-opacity:1;" d="M 686.375 517.96875 L 686.375 560.398438 L 702.375 560.398438 L 702.375 475.539062 L 686.375 475.539062 Z M 686.375 517.96875 "/>
<path style=" stroke:none;fill-rule:nonzero;fill:rgb(0%,0%,0%);fill-opacity:1;" d="M 544.78125 493.632812 C 524.140625 503.238281 518.222656 531.898438 533.101562 549.992188 C 539.5 557.679688 546.378906 560.878906 556.9375 561.039062 C 564.140625 561.199219 567.179688 560.238281 572.457031 556.71875 L 579.179688 552.394531 L 579.179688 556.398438 C 579.179688 560.078125 579.660156 560.398438 587.179688 560.398438 L 595.179688 560.398438 L 595.179688 491.550781 L 587.179688 491.550781 C 579.660156 491.550781 579.179688 491.871094 579.179688 495.554688 C 579.179688 500.355469 578.539062 500.515625 572.617188 496.195312 C 566.539062 491.871094 551.5 490.589844 544.78125 493.632812 Z M 574.539062 511.726562 C 577.738281 515.246094 578.378906 517.328125 578.21875 525.65625 C 578.21875 531.097656 577.257812 537.183594 576.296875 539.105469 C 572.296875 546.46875 552.300781 547.910156 545.417969 541.347656 C 538.21875 534.621094 538.539062 517.648438 545.898438 510.765625 C 548.621094 508.203125 551.660156 507.5625 559.980469 507.5625 C 569.417969 507.5625 571.019531 508.042969 574.539062 511.726562 Z M 574.539062 511.726562 "/>
<path style=" stroke:none;fill-rule:nonzero;fill:rgb(0%,0%,0%);fill-opacity:1;" d="M 733.574219 493.792969 C 715.332031 500.515625 707.972656 524.695312 718.054688 544.546875 C 724.132812 556.71875 732.292969 561.039062 748.773438 561.199219 C 763.171875 561.199219 769.410156 558.160156 776.609375 547.910156 C 787.332031 532.699219 783.492188 506.28125 769.410156 496.835938 C 761.730469 491.871094 743.332031 490.269531 733.574219 493.792969 Z M 760.132812 509.164062 C 764.613281 511.726562 767.972656 519.25 767.972656 527.417969 C 767.972656 533.179688 767.011719 535.742188 763.332031 539.90625 C 759.011719 544.867188 757.890625 545.1875 748.292969 545.1875 C 739.011719 545.1875 737.414062 544.707031 733.734375 540.707031 C 731.492188 538.304688 729.253906 533.820312 728.613281 530.777344 C 727.332031 523.414062 731.492188 511.886719 736.453125 509.484375 C 741.09375 507.242188 756.132812 507.082031 760.132812 509.164062 Z M 760.132812 509.164062 "/>
<path style=" stroke:none;fill-rule:nonzero;fill:rgb(0%,0%,0%);fill-opacity:1;" d="M 793.570312 525.976562 L 793.570312 560.398438 L 810.691406 560.398438 L 810.851562 537.824219 C 811.171875 509.164062 811.96875 507.5625 825.730469 507.5625 C 833.730469 507.5625 835.96875 508.203125 839.167969 511.566406 C 843.007812 515.246094 843.167969 516.207031 843.167969 537.984375 L 843.167969 560.558594 L 859.488281 559.597656 L 859.328125 535.101562 C 859.167969 508.042969 858.207031 504.199219 849.089844 497.316406 C 842.527344 492.351562 827.488281 490.109375 819.007812 492.992188 C 812.769531 495.074219 810.210938 495.074219 810.851562 492.992188 C 811.011719 492.191406 807.171875 491.550781 802.371094 491.550781 L 793.570312 491.550781 Z M 793.570312 525.976562 "/>
<path style=" stroke:none;fill-rule:nonzero;fill:rgb(0%,0%,0%);fill-opacity:1;" d="M 891.96875 493.472656 C 877.886719 498.597656 871.808594 508.363281 871.648438 526.296875 C 871.648438 547.269531 880.605469 558.636719 899.488281 561.039062 C 915.964844 563.28125 928.125 558.796875 935.484375 547.75 C 940.925781 539.585938 940.285156 537.984375 931.644531 537.984375 C 926.207031 537.984375 923.164062 538.945312 920.605469 541.347656 C 912.765625 548.710938 893.246094 546.628906 888.765625 537.984375 C 887.488281 535.421875 886.367188 533.019531 886.367188 532.378906 C 886.367188 531.898438 898.6875 531.578125 913.566406 531.578125 L 940.765625 531.578125 L 940.765625 525.496094 C 940.765625 509.164062 931.964844 496.515625 918.367188 493.472656 C 908.445312 491.230469 898.527344 491.230469 891.96875 493.472656 Z M 920.765625 511.726562 C 923.003906 514.125 924.285156 516.527344 923.804688 517.328125 C 923.324219 518.128906 915.167969 518.769531 905.40625 518.769531 C 887.328125 518.769531 885.566406 517.96875 890.046875 512.207031 C 892.765625 508.523438 895.488281 507.882812 906.847656 507.722656 C 915.804688 507.5625 917.40625 508.042969 920.765625 511.726562 Z M 920.765625 511.726562 "/>
<path style=" stroke:none;fill-rule:nonzero;fill:rgb(0%,0%,0%);fill-opacity:1;" d="M 503.980469 597.707031 C 501.742188 598.828125 499.660156 601.070312 499.339844 602.832031 C 499.023438 604.589844 497.582031 606.832031 496.140625 607.953125 C 493.742188 609.714844 493.742188 609.875 496.460938 610.035156 C 498.703125 610.035156 499.179688 611.636719 499.179688 621.242188 C 499.179688 627.648438 499.820312 632.453125 500.78125 632.453125 C 501.742188 632.453125 502.382812 627.648438 502.382812 621.242188 C 502.382812 612.277344 502.863281 610.035156 504.78125 610.035156 C 506.0625 610.035156 507.179688 609.234375 507.179688 608.433594 C 507.179688 607.472656 506.0625 606.832031 504.78125 606.832031 C 501.582031 606.832031 501.742188 601.070312 504.941406 599.789062 C 506.382812 599.308594 508.140625 599.148438 508.941406 599.789062 C 509.742188 600.269531 510.382812 599.949219 510.382812 598.988281 C 510.382812 596.265625 507.980469 595.785156 503.980469 597.707031 Z M 503.980469 597.707031 "/>
<path style=" stroke:none;fill-rule:nonzero;fill:rgb(0%,0%,0%);fill-opacity:1;" d="M 702.054688 614.679688 C 701.734375 624.445312 702.214844 632.292969 702.855469 631.972656 C 704.292969 631.492188 704.773438 599.148438 703.332031 597.707031 C 703.015625 597.226562 702.375 604.910156 702.054688 614.679688 Z M 702.054688 614.679688 "/>
<path style=" stroke:none;fill-rule:nonzero;fill:rgb(0%,0%,0%);fill-opacity:1;" d="M 716.773438 614.839844 C 716.773438 625.566406 717.414062 632.453125 718.375 632.453125 C 719.332031 632.453125 719.972656 625.566406 719.972656 614.839844 C 719.972656 604.109375 719.332031 597.226562 718.375 597.226562 C 717.414062 597.226562 716.773438 604.109375 716.773438 614.839844 Z M 716.773438 614.839844 "/>
<path style=" stroke:none;fill-rule:nonzero;fill:rgb(0%,0%,0%);fill-opacity:1;" d="M 450.863281 615.640625 C 451.183594 624.925781 451.984375 632.453125 452.941406 632.453125 C 453.742188 632.453125 454.382812 625.085938 454.382812 615.640625 C 454.382812 603.308594 453.902344 598.828125 452.464844 598.828125 C 450.863281 598.828125 450.542969 602.992188 450.863281 615.640625 Z M 450.863281 615.640625 "/>
<path style=" stroke:none;fill-rule:nonzero;fill:rgb(0%,0%,0%);fill-opacity:1;" d="M 516.78125 601.390625 C 516.78125 602.671875 517.582031 603.308594 518.378906 602.832031 C 519.339844 602.351562 519.980469 601.230469 519.980469 600.269531 C 519.980469 599.46875 519.339844 598.828125 518.378906 598.828125 C 517.582031 598.828125 516.78125 599.949219 516.78125 601.390625 Z M 516.78125 601.390625 "/>
<path style=" stroke:none;fill-rule:nonzero;fill:rgb(0%,0%,0%);fill-opacity:1;" d="M 583.179688 600.269531 C 582.21875 602.03125 584.617188 603.949219 586.21875 602.511719 C 587.660156 601.070312 587.339844 598.828125 585.738281 598.828125 C 584.777344 598.828125 583.816406 599.46875 583.179688 600.269531 Z M 583.179688 600.269531 "/>
<path style=" stroke:none;fill-rule:nonzero;fill:rgb(0%,0%,0%);fill-opacity:1;" d="M 610.539062 600.269531 C 609.898438 601.070312 610.21875 602.191406 611.015625 602.671875 C 611.816406 603.308594 612.9375 602.992188 613.417969 602.191406 C 614.058594 601.390625 613.738281 600.269531 612.9375 599.789062 C 612.136719 599.148438 611.015625 599.46875 610.539062 600.269531 Z M 610.539062 600.269531 "/>
<path style=" stroke:none;fill-rule:nonzero;fill:rgb(0%,0%,0%);fill-opacity:1;" d="M 672.773438 613.558594 C 669.414062 621.722656 666.535156 629.410156 666.054688 630.371094 C 665.574219 631.492188 666.054688 632.453125 667.015625 632.453125 C 667.976562 632.453125 669.734375 629.890625 671.015625 626.847656 C 673.253906 621.722656 674.054688 621.242188 679.816406 621.242188 C 685.574219 621.242188 686.375 621.722656 688.132812 626.847656 C 689.253906 629.890625 691.175781 632.453125 692.132812 632.453125 C 693.414062 632.453125 691.8125 626.6875 687.816406 616.28125 C 684.453125 607.472656 681.574219 599.949219 681.574219 599.46875 C 681.574219 599.148438 680.933594 598.828125 680.136719 598.828125 C 679.335938 598.828125 675.976562 605.550781 672.773438 613.558594 Z M 682.695312 612.4375 C 684.453125 617.882812 684.453125 618.039062 679.816406 618.039062 C 674.535156 618.039062 674.695312 618.359375 676.933594 611.796875 C 679.175781 605.390625 680.613281 605.550781 682.695312 612.4375 Z M 682.695312 612.4375 "/>
<path style=" stroke:none;fill-rule:nonzero;fill:rgb(0%,0%,0%);fill-opacity:1;" d="M 808.769531 600.269531 C 807.808594 602.03125 810.210938 603.949219 811.808594 602.511719 C 813.25 601.070312 812.929688 598.828125 811.328125 598.828125 C 810.371094 598.828125 809.410156 599.46875 808.769531 600.269531 Z M 808.769531 600.269531 "/>
<path style=" stroke:none;fill-rule:nonzero;fill:rgb(0%,0%,0%);fill-opacity:1;" d="M 855.96875 601.230469 C 855.96875 602.511719 856.769531 603.628906 857.566406 603.628906 C 858.527344 603.628906 859.167969 602.511719 859.167969 601.230469 C 859.167969 599.949219 858.527344 598.828125 857.566406 598.828125 C 856.769531 598.828125 855.96875 599.949219 855.96875 601.230469 Z M 855.96875 601.230469 "/>
<path style=" stroke:none;fill-rule:nonzero;fill:rgb(0%,0%,0%);fill-opacity:1;" d="M 465.582031 619.640625 C 465.582031 627.167969 466.222656 632.453125 467.183594 632.453125 C 468.144531 632.453125 468.78125 628.609375 468.78125 623.804688 C 468.78125 614.199219 471.34375 610.035156 477.582031 610.035156 C 482.0625 610.035156 483.183594 612.597656 483.183594 623.804688 C 483.183594 628.609375 483.980469 632.453125 484.78125 632.453125 C 485.742188 632.453125 486.382812 627.96875 486.382812 622.363281 C 486.382812 614.519531 485.742188 611.476562 483.503906 609.554688 C 480.140625 606.511719 476.300781 606.191406 471.824219 608.433594 C 469.742188 609.554688 468.78125 609.554688 468.78125 608.433594 C 468.78125 607.632812 468.144531 606.832031 467.183594 606.832031 C 466.222656 606.832031 465.582031 612.117188 465.582031 619.640625 Z M 465.582031 619.640625 "/>
<path style=" stroke:none;fill-rule:nonzero;fill:rgb(0%,0%,0%);fill-opacity:1;" d="M 516.78125 619.640625 C 516.78125 627.167969 517.421875 632.453125 518.378906 632.453125 C 519.339844 632.453125 519.980469 627.167969 519.980469 619.640625 C 519.980469 612.117188 519.339844 606.832031 518.378906 606.832031 C 517.421875 606.832031 516.78125 612.117188 516.78125 619.640625 Z M 516.78125 619.640625 "/>
<path style=" stroke:none;fill-rule:nonzero;fill:rgb(0%,0%,0%);fill-opacity:1;" d="M 532.140625 608.914062 C 527.660156 612.117188 529.742188 616.761719 537.261719 620.921875 C 547.5 626.6875 546.058594 630.371094 534.058594 629.410156 C 531.5 629.25 529.582031 629.730469 529.582031 630.53125 C 529.582031 633.089844 538.058594 633.890625 542.378906 631.972656 C 548.941406 628.769531 547.660156 623.164062 539.660156 619 C 531.339844 614.839844 531.179688 610.996094 539.179688 610.515625 C 547.820312 610.195312 548.140625 610.035156 545.578125 608.433594 C 542.21875 606.191406 535.5 606.511719 532.140625 608.914062 Z M 532.140625 608.914062 "/>
<path style=" stroke:none;fill-rule:nonzero;fill:rgb(0%,0%,0%);fill-opacity:1;" d="M 557.738281 609.394531 C 554.699219 612.277344 554.699219 612.597656 556.78125 616.441406 C 557.578125 618.039062 560.9375 620.28125 563.980469 621.242188 C 573.898438 624.445312 570.21875 631.972656 559.660156 630.050781 C 557.097656 629.570312 555.179688 629.890625 555.179688 630.691406 C 555.179688 633.089844 562.539062 634.050781 567.820312 632.292969 C 571.820312 630.851562 572.777344 629.730469 572.777344 625.886719 C 572.777344 621.882812 571.820312 620.761719 566.539062 618.679688 C 555.980469 614.519531 557.097656 608.433594 567.980469 610.675781 C 573.578125 611.636719 574.539062 609.234375 569.257812 607.792969 C 563.339844 606.351562 560.300781 606.671875 557.738281 609.394531 Z M 557.738281 609.394531 "/>
<path style=" stroke:none;fill-rule:nonzero;fill:rgb(0%,0%,0%);fill-opacity:1;" d="M 583.976562 619.640625 C 583.976562 627.167969 584.617188 632.453125 585.578125 632.453125 C 586.539062 632.453125 587.179688 627.167969 587.179688 619.640625 C 587.179688 612.117188 586.539062 606.832031 585.578125 606.832031 C 584.617188 606.832031 583.976562 612.117188 583.976562 619.640625 Z M 583.976562 619.640625 "/>
<path style=" stroke:none;fill-rule:nonzero;fill:rgb(0%,0%,0%);fill-opacity:1;" d="M 610.21875 618.839844 C 610.21875 625.566406 611.015625 630.851562 611.976562 630.851562 C 614.21875 630.851562 614.058594 608.113281 611.816406 607.3125 C 610.539062 606.832031 610.058594 610.355469 610.21875 618.839844 Z M 610.21875 618.839844 "/>
<path style=" stroke:none;fill-rule:nonzero;fill:rgb(0%,0%,0%);fill-opacity:1;" d="M 625.578125 619.960938 C 625.578125 627.167969 626.214844 632.453125 627.175781 632.453125 C 628.136719 632.453125 628.777344 628.289062 628.777344 623.164062 C 628.777344 613.078125 630.535156 610.035156 636.296875 610.035156 C 641.097656 610.035156 643.175781 614.519531 643.175781 624.285156 C 643.175781 628.769531 643.976562 632.453125 644.777344 632.453125 C 647.015625 632.453125 646.695312 616.441406 644.296875 611.636719 C 642.535156 608.113281 641.097656 607.632812 633.898438 607.472656 L 625.578125 607.3125 Z M 625.578125 619.960938 "/>
<path style=" stroke:none;fill-rule:nonzero;fill:rgb(0%,0%,0%);fill-opacity:1;" d="M 731.171875 616.921875 C 731.171875 628.609375 733.414062 632.773438 739.652344 632.613281 C 753.253906 632.132812 751.972656 633.570312 751.972656 619.480469 C 751.972656 612.117188 751.332031 606.832031 750.371094 606.832031 C 749.570312 606.832031 748.773438 610.835938 748.773438 615.640625 C 748.773438 622.363281 747.972656 625.246094 745.574219 627.648438 C 738.691406 634.53125 734.371094 630.53125 734.371094 616.921875 C 734.371094 611.316406 733.734375 606.832031 732.773438 606.832031 C 731.8125 606.832031 731.171875 611.316406 731.171875 616.921875 Z M 731.171875 616.921875 "/>
<path style=" stroke:none;fill-rule:nonzero;fill:rgb(0%,0%,0%);fill-opacity:1;" d="M 763.171875 619.960938 C 763.171875 627.167969 763.8125 632.453125 764.773438 632.453125 C 765.730469 632.453125 766.371094 628.769531 766.371094 624.285156 C 766.371094 614.359375 768.453125 610.035156 773.410156 610.035156 C 778.050781 610.035156 779.171875 612.597656 779.171875 623.804688 C 779.171875 628.609375 779.972656 632.453125 780.769531 632.453125 C 781.730469 632.453125 782.371094 628.289062 782.371094 623.164062 C 782.371094 612.277344 783.8125 609.554688 788.929688 610.355469 C 792.449219 610.835938 792.769531 611.636719 793.25 621.5625 C 793.890625 635.011719 796.769531 635.972656 796.769531 622.683594 C 796.769531 608.113281 792.769531 603.628906 783.8125 608.59375 C 781.570312 609.714844 779.972656 609.714844 778.53125 608.59375 C 777.570312 607.792969 773.570312 607.152344 769.890625 607.3125 L 763.171875 607.472656 Z M 763.171875 619.960938 "/>
<path style=" stroke:none;fill-rule:nonzero;fill:rgb(0%,0%,0%);fill-opacity:1;" d="M 809.089844 607.953125 C 807.96875 610.035156 807.808594 626.046875 808.769531 629.410156 C 810.691406 635.332031 812.289062 630.851562 812.609375 618.839844 C 812.769531 611.796875 812.289062 606.832031 811.328125 606.832031 C 810.53125 606.832031 809.410156 607.3125 809.089844 607.953125 Z M 809.089844 607.953125 "/>
<path style=" stroke:none;fill-rule:nonzero;fill:rgb(0%,0%,0%);fill-opacity:1;" d="M 823.96875 619.640625 C 823.96875 627.167969 824.609375 632.453125 825.570312 632.453125 C 826.53125 632.453125 827.167969 628.289062 827.167969 623.164062 C 827.167969 613.078125 828.929688 610.035156 834.6875 610.035156 C 839.488281 610.035156 841.570312 614.519531 841.570312 624.285156 C 841.570312 628.769531 842.367188 632.453125 843.167969 632.453125 C 845.410156 632.453125 845.089844 616.441406 842.6875 611.636719 C 840.449219 607.152344 833.25 605.390625 829.410156 608.59375 C 827.808594 609.875 827.167969 609.875 827.167969 608.59375 C 827.167969 607.632812 826.53125 606.832031 825.570312 606.832031 C 824.609375 606.832031 823.96875 612.117188 823.96875 619.640625 Z M 823.96875 619.640625 "/>
<path style=" stroke:none;fill-rule:nonzero;fill:rgb(0%,0%,0%);fill-opacity:1;" d="M 855.96875 619.640625 C 855.96875 627.167969 856.609375 632.453125 857.566406 632.453125 C 858.527344 632.453125 859.167969 627.167969 859.167969 619.640625 C 859.167969 612.117188 858.527344 606.832031 857.566406 606.832031 C 856.609375 606.832031 855.96875 612.117188 855.96875 619.640625 Z M 855.96875 619.640625 "/>
<path style=" stroke:none;fill-rule:nonzero;fill:rgb(0%,0%,0%);fill-opacity:1;" d="M 872.128906 610.996094 C 863.488281 622.042969 873.726562 637.574219 885.886719 631.972656 C 891.96875 629.25 893.566406 617.882812 888.765625 610.675781 C 885.246094 605.230469 876.609375 605.390625 872.128906 610.996094 Z M 886.046875 611.957031 C 889.40625 615.320312 888.445312 625.566406 884.605469 628.289062 C 875.808594 634.371094 868.609375 621.082031 875.648438 611.957031 C 877.566406 609.554688 883.488281 609.394531 886.046875 611.957031 Z M 886.046875 611.957031 "/>
</g>
</svg>
